<svg id="Layer_1" data-name="Layer 1" xmlns="http://www.w3.org/2000/svg" xmlns:xlink="http://www.w3.org/1999/xlink" viewBox="0 0 512 512"><defs><style>.cls-1{fill:url(#linear-gradient);}.cls-2{fill:#fff;}</style><linearGradient id="linear-gradient" y1="256" x2="512" y2="256" gradientUnits="userSpaceOnUse"><stop offset="0" stop-color="#f9aa4b"/><stop offset="1" stop-color="#f7931a"/></linearGradient></defs><title>Artboard 1640x</title><polygon class="cls-1" points="128.25 36.43 384.25 36.72 512 256.29 383.75 475.57 127.75 475.28 0 255.72 128.25 36.43"/><path id="symbol" class="cls-2" d="M346.47,225.33c4.16-27.85-17-42.82-46-52.8l9.39-37.72L287,129.09l-9.15,36.72c-6-1.5-12.22-2.92-18.38-4.33l9.21-37-22.92-5.72-9.4,37.71c-5-1.14-9.89-2.26-14.65-3.45l0-.12L190.06,145,184,169.55s17,3.91,16.66,4.15c9.29,2.32,11,8.47,10.69,13.35L185.56,290.38c-1.14,2.83-4,7.06-10.51,5.46.23.33-16.67-4.17-16.67-4.17L147,318l29.85,7.45c5.55,1.39,11,2.85,16.35,4.23l-9.49,38.15,22.91,5.72,9.4-37.75c6.26,1.7,12.34,3.27,18.28,4.75l-9.37,37.57,22.94,5.72,9.49-38.08c39.12,7.41,68.53,4.42,80.91-31,10-28.51-.5-45-21.08-55.68,15-3.46,26.28-13.33,29.29-33.71Zm-52.41,73.56C287,327.4,239,312,223.47,308.12l12.59-50.54C251.61,261.46,301.47,269.15,294.06,298.89Zm7.1-74c-6.47,25.94-46.39,12.76-59.34,9.53l11.42-45.84C266.19,191.83,307.89,197.86,301.16,224.91Z"/></svg>