<?xml version="1.0" encoding="UTF-8" standalone="no"?>
<svg
   xmlns:dc="http://purl.org/dc/elements/1.1/"
   xmlns:cc="http://creativecommons.org/ns#"
   xmlns:rdf="http://www.w3.org/1999/02/22-rdf-syntax-ns#"
   xmlns:svg="http://www.w3.org/2000/svg"
   xmlns="http://www.w3.org/2000/svg"
   id="Layer_1"
   data-name="Layer 1"
   viewBox="0 0 338.51 338.51"
   version="1.1"
   width="338.51001"
   height="338.51001">
  <metadata
     id="metadata20">
    <rdf:RDF>
      <cc:Work
         rdf:about="">
        <dc:format>image/svg+xml</dc:format>
        <dc:type
           rdf:resource="http://purl.org/dc/dcmitype/StillImage" />
        <dc:title>hex-logo</dc:title>
      </cc:Work>
    </rdf:RDF>
  </metadata>
  <defs
     id="defs11">
    <linearGradient
       id="linear-gradient"
       x1="84.629997"
       y1="295.19"
       x2="253.89"
       y2="2.04"
       gradientUnits="userSpaceOnUse"
       gradientTransform="translate(4.8828125e-6,20.610004)">
      <stop
         offset="0"
         stop-color="#fd0"
         id="stop2" />
      <stop
         offset="0.33"
         stop-color="#fe8f1f"
         id="stop4" />
      <stop
         offset="0.67"
         stop-color="#fe2975"
         id="stop6" />
      <stop
         offset="1"
         stop-color="#f0f"
         id="stop8" />
    </linearGradient>
  </defs>
  <title
     id="title13">hex-logo</title>
  <path
     d="m 79.560005,311.08001 -22.92,-39.7 a 5.28,5.28 0 0 1 0,-4.65 l 25.45,-44.07 a 5.24,5.24 0 0 1 4.06,-2.35 H 137.04 a 5.26,5.26 0 0 1 4.07,2.35 l 25.45,44.07 a 5.32,5.32 0 0 1 0,4.7 l -25.45,44.07 a 5.33,5.33 0 0 1 -4,2.34 H 91.360005 a 15.43,15.43 0 0 1 -11.8,-6.76 z m 165.269995,-90.69 -50.7,-87.78 a 7.21,7.21 0 0 0 -5.56,-3.21 H 87.170005 a 7.21,7.21 0 0 0 -5.56,3.21 l -50.7,87.82 a 7.18,7.18 0 0 0 0,6.42 l 14.86,25.76 26,-45 a 8.22,8.22 0 0 1 6.43,-3.72 H 145 a 8.22,8.22 0 0 1 6.43,3.72 l 33.41,57.86 a 8.24,8.24 0 0 1 0,7.43 l -26,45 h 29.7 a 7.19,7.19 0 0 0 5.56,-3.22 l 50.7,-87.81 a 7.18,7.18 0 0 0 0.03,-6.48 z m 92,-58.09 -77.77,-134.760006 a 15.37,15.37 0 0 0 -12,-6.93 H 91.450005 a 15.37,15.37 0 0 0 -12,6.93 L 1.6500049,162.30001 a 15.36,15.36 0 0 0 0,13.85 l 17.8300001,30.88 51.7,-89.56 a 10.14,10.14 0 0 1 7.94,-4.58 H 196.53 a 10.14,10.14 0 0 1 7.94,4.58 l 58.71,101.69 a 10.13,10.13 0 0 1 0,9.16 l -51.69,89.52 h 35.57 a 15.37,15.37 0 0 0 12,-6.93 l 77.8,-134.76 a 15.36,15.36 0 0 0 0,-13.85 z"
     style="fill:url(#linear-gradient)"
     id="path15" />
</svg>
