<?xml version="1.0" encoding="utf-8"?>
<!-- Generator: Adobe Illustrator 23.0.0, SVG Export Plug-In . SVG Version: 6.00 Build 0)  -->
<svg version="1.1" id="Layer_1" xmlns="http://www.w3.org/2000/svg" xmlns:xlink="http://www.w3.org/1999/xlink" x="0px" y="0px"
	 viewBox="0 0 512 512" style="enable-background:new 0 0 512 512;" xml:space="preserve">
<style type="text/css">
	.st0{fill:none;stroke:url(#SVGID_1_);stroke-width:18;stroke-miterlimit:10;}
	.st1{fill:url(#SVGID_2_);}
	.st2{fill:#FFFFFF;}
</style>
<linearGradient id="SVGID_1_" gradientUnits="userSpaceOnUse" x1="8.063070e-02" y1="256" x2="511.9194" y2="256">
	<stop  offset="0" style="stop-color:#F9AA4B"/>
	<stop  offset="1" style="stop-color:#F7931A"/>
</linearGradient>
<polygon class="st0" points="133.5,45.4 379,45.7 501.5,256.3 378.5,466.6 133,466.3 10.5,255.7 "/>
<linearGradient id="SVGID_2_" gradientUnits="userSpaceOnUse" x1="61" y1="256" x2="451" y2="256">
	<stop  offset="0" style="stop-color:#F9AA4B"/>
	<stop  offset="1" style="stop-color:#F7931A"/>
</linearGradient>
<polygon class="st1" points="158.7,88.7 353.7,89 451,256.2 353.3,423.3 158.3,423 61,255.8 "/>
<path id="Symbol" class="st2" d="M342.8,214c0.9-28.1-21.8-40.6-51.8-47.2l5-38.6l-23.4-3.1l-4.9,37.5c-6.1-0.8-12.5-1.5-18.8-2.2
	l4.9-37.8l-23.4-3l-5,38.5c-5.1-0.6-10.1-1.1-14.9-1.7l0-0.1l-32.3-4.2l-3.2,25.1c0,0,17.3,1.9,17,2.2c9.5,1.2,11.9,7.1,12.2,12
	l-13.7,105.6c-0.8,2.9-3.2,7.5-9.8,6.6c0.3,0.3-17-2.2-17-2.2l-8.3,27.5l30.5,4c5.7,0.7,11.3,1.6,16.7,2.3l-5,39l23.4,3l5-38.6
	c6.4,1,12.6,1.8,18.7,2.6l-5,38.4l23.4,3l5-38.9c39.7,2.9,68.6-3.5,76.8-40.1c6.7-29.5-5.7-44.6-27.3-52.9
	C332.1,245.8,342.2,234.7,342.8,214L342.8,214z M299.2,293.1c-3.7,29.1-53.2,19.4-69.1,17.3l6.7-51.7
	C252.7,260.9,303.2,262.8,299.2,293.1z M297.8,218.8c-3.4,26.5-44.6,18-57.8,16.3l6.1-46.8C259.2,190,301.3,191.2,297.8,218.8
	L297.8,218.8z"/>
</svg>
